HIERARCHY
ROOT Hips
{
	OFFSET -3.958830 18.904000 13.208200
	CHANNELS 6 Xposition Yposition Zposition Zrotation Yrotation Xrotation 
	JOINT LHipJoint
	{
		OFFSET 0.000000 0.000000 0.000000
		CHANNELS 3 Zrotation Yrotation Xrotation
		JOINT LeftUpLeg
		{
			OFFSET 1.800000 -1.400000 0.085000
			CHANNELS 3 Zrotation Yrotation Xrotation
			JOINT LeftLeg
			{
				OFFSET 2.215000 -6.000000 0.000000
				CHANNELS 3 Zrotation Yrotation Xrotation
				JOINT LeftFoot
				{
					OFFSET 2.500000 -6.900000 0.000000
					CHANNELS 3 Zrotation Yrotation Xrotation
					JOINT LeftToeBase
					{
						OFFSET 0.200000 -0.500000 1.950000
						CHANNELS 3 Zrotation Yrotation Xrotation
						End Site
						{
							OFFSET 0.000000 0.000000 0.000000
						}
					}
				}
			}
		}
	}
	JOINT RHipJoint
	{
		OFFSET 0.000000 0.000000 0.000000
		CHANNELS 3 Zrotation Yrotation Xrotation
		JOINT RightUpLeg
		{
			OFFSET -1.800000 -1.400000 0.085000
			CHANNELS 3 Zrotation Yrotation Xrotation
			JOINT RightLeg
			{
				OFFSET -2.215000 -6.000000 0.000000
				CHANNELS 3 Zrotation Yrotation Xrotation
				JOINT RightFoot
				{
					OFFSET -2.500000 -6.900000 0.000000
					CHANNELS 3 Zrotation Yrotation Xrotation
					JOINT RightToeBase
					{
						OFFSET -0.200000 -0.500000 1.950000
						CHANNELS 3 Zrotation Yrotation Xrotation
						End Site
						{
							OFFSET 0.000000 0.000000 0.000000
						}
					}
				}
			}
		}
	}
	JOINT LowerBack
	{
		OFFSET 0.000000 0.000000 0.000000
		CHANNELS 3 Zrotation Yrotation Xrotation
		JOINT Spine
		{
			OFFSET -0.087000 1.940000 -0.288900
			CHANNELS 3 Zrotation Yrotation Xrotation
			JOINT Spine1
			{
				OFFSET 0.000000 1.950000 0.060000
				CHANNELS 3 Zrotation Yrotation Xrotation
				JOINT Neck
				{
					OFFSET 0.000000 0.000000 0.000000
					CHANNELS 3 Zrotation Yrotation Xrotation
					JOINT Neck1
					{
						OFFSET 0.000000 1.600000 0.340000
						CHANNELS 3 Zrotation Yrotation Xrotation
						JOINT Head
						{
							OFFSET 0.000000 1.667000 -0.240000
							CHANNELS 3 Zrotation Yrotation Xrotation
							End Site
							{
								OFFSET 0.000000 0.000000 0.000000
							}
						}
					}
				}
				JOINT LeftShoulder
				{
					OFFSET 0.000000 0.000000 0.000000
					CHANNELS 3 Zrotation Yrotation Xrotation
					JOINT LeftArm
					{
						OFFSET 2.700000 1.550000 -0.730000
						CHANNELS 3 Zrotation Yrotation Xrotation
						JOINT LeftForeArm
						{
							OFFSET 5.450000 0.000000 0.000000
							CHANNELS 3 Zrotation Yrotation Xrotation
							JOINT LeftHand
							{
								OFFSET 3.450000 0.000000 0.000000
								CHANNELS 3 Zrotation Yrotation Xrotation
								JOINT LeftHandIndex1
								{
									OFFSET 0.750000 0.000000 0.000000
									CHANNELS 3 Zrotation Yrotation Xrotation
									End Site
									{
										OFFSET 0.000000 0.000000 0.000000
									}
								}
							}
						}
					}
				}
				JOINT RightShoulder
				{
					OFFSET 0.000000 0.000000 0.000000
					CHANNELS 3 Zrotation Yrotation Xrotation
					JOINT RightArm
					{
						OFFSET -2.700000 1.550000 -0.730000
						CHANNELS 3 Zrotation Yrotation Xrotation
						JOINT RightForeArm
						{
							OFFSET -5.450000 0.000000 0.000000
							CHANNELS 3 Zrotation Yrotation Xrotation
							JOINT RightHand
							{
								OFFSET -3.450000 0.000000 0.000000
								CHANNELS 3 Zrotation Yrotation Xrotation
								JOINT RightHandIndex1
								{
									OFFSET -0.750000 0.000000 0.000000
									CHANNELS 3 Zrotation Yrotation Xrotation
									End Site
									{
										OFFSET 0.000000 0.000000 0.000000
									}
								}
							}
						}
					}
				}
			}
		}
	}
}
MOTION
Frames: 14
Frame Time: 0.016667
0.761510 16.132620 -1.439370 -5.062351 26.087814 5.543697 -15.380216 12.683372 4.109936 16.423213 -1.510443 -34.651724 -7.679285 7.865413 18.805991 -0.349359 5.001656 2.846168 -0.082110 -0.512850 0.143190 18.054967 -11.076108 1.982328 -9.585926 1.282505 -12.273549 1.267095 -4.403177 17.411671 0.109816 -3.492292 3.206796 -0.212750 0.506380 0.145190 -3.480683 -1.281006 -7.514362 1.365180 5.866315 9.834822 9.350563 6.293091 -0.042990 -4.632277 -6.811604 -11.173216 -11.750416 4.965660 22.205067 -1.895050 2.624040 -0.949710 5.682480 5.402713 8.563015 -52.826647 8.662178 -4.240871 -70.632227 -49.163300 29.951583 -3.353571 3.870172 0.313100 0.246340 -0.287920 0.034780 4.958516 2.450610 4.236142 60.160836 0.693399 -11.224218 2.182154 32.784974 -0.967561 2.321565 -1.381394 -0.373220 0.157280 0.128480 -0.124890 
0.819370 16.141550 -1.409230 -4.884262 25.581650 6.894841 -15.380140 12.855099 4.207127 15.849583 -1.867757 -35.109417 -7.817688 7.740122 18.344423 -0.227588 4.865402 2.946098 -0.144780 -0.571810 0.028360 18.040888 -10.949851 1.961373 -9.401631 1.585778 -13.857725 0.667534 -4.166283 18.399642 0.173337 -3.363911 3.287585 -0.280810 0.565540 0.111270 -3.487016 -1.833878 -7.551537 1.983138 4.510936 10.437647 8.103333 5.564465 -4.435052 -5.116256 -9.234530 -10.459458 -16.504193 7.470057 20.216684 -0.129810 1.877940 1.521720 5.373828 12.222079 8.294122 -54.693453 12.658038 -3.972707 -69.807270 -51.769856 32.544113 -3.274958 3.977090 0.249420 0.234110 -0.338060 0.083490 6.412859 -2.871474 3.352176 59.735303 -3.460036 -12.488576 9.451216 42.255888 2.069525 2.331074 -1.490951 -0.352950 0.145710 0.122680 -0.048230 
0.878870 16.157120 -1.386310 -4.601974 25.161826 7.990640 -15.340020 12.964478 4.214866 15.031440 -2.218661 -35.094774 -7.747932 7.439870 17.598690 -0.164873 4.653369 3.062892 -0.189380 -0.615750 -0.061210 18.067669 -10.897778 1.963316 -9.417039 1.849789 -15.185607 0.076636 -3.946905 18.962482 0.219992 -3.256826 3.358119 -0.326880 0.612480 0.074270 -3.612058 -2.110986 -7.534868 3.609749 3.135305 10.925806 5.584162 4.476007 -7.816136 -5.047252 -11.189639 -9.887878 -20.836226 10.235281 18.325774 1.267270 1.643060 3.270620 4.472000 18.415000 7.527927 -55.818596 16.171086 -4.481244 -66.418672 -56.140209 34.467857 -3.236039 4.042593 0.217440 0.217880 -0.376610 0.122850 7.122241 -7.869236 2.623823 60.122277 -6.315996 -12.244677 18.763951 52.379972 7.539733 2.332000 -1.653136 -0.350500 0.152390 0.122650 0.004910 
0.942730 16.162760 -1.362860 -3.749143 25.465998 8.967334 -15.261256 12.968129 4.112835 13.392126 -2.758438 -34.593272 -7.475949 6.995433 16.972441 -0.158685 4.361902 3.201742 -0.182510 -0.597250 -0.093960 18.136315 -10.975999 1.958841 -10.064654 1.926479 -15.955163 -0.257699 -3.865206 19.167406 0.232038 -3.239907 3.368594 -0.320490 0.641870 0.050670 -3.857362 -1.974527 -7.407269 5.528199 2.130490 10.309604 1.908789 3.227959 -8.865260 -4.627501 -12.221928 -9.096744 -23.313490 12.237264 17.254990 2.060080 1.741710 4.297830 3.254502 23.117729 6.065722 -57.058242 17.126550 -5.336409 -60.225042 -60.614658 34.012860 -3.233466 4.074026 0.192350 0.208900 -0.393710 0.159730 6.958720 -11.918334 2.080567 62.393951 -7.727433 -11.406276 27.857044 60.697880 14.077830 2.335638 -1.821555 -0.348250 0.169070 0.104690 0.040650 
1.001430 16.170480 -1.350990 -3.063511 25.862718 9.353430 -15.192928 12.947160 4.028500 12.160152 -3.092597 -34.105482 -7.353370 6.840811 17.163688 -0.159495 4.229306 3.256543 -0.162930 -0.578480 -0.091500 18.195143 -11.067549 1.962522 -10.695484 1.966300 -16.302550 -0.168578 -3.967203 19.455729 0.220444 -3.269632 3.351926 -0.316990 0.628720 0.037570 -4.075783 -1.756492 -7.329185 7.671033 1.469922 10.090189 -1.299315 2.304591 -9.323689 -3.829258 -13.081459 -8.490781 -25.623577 13.679093 17.580270 1.876030 2.115970 4.898020 1.650596 26.466076 4.381223 -58.971190 16.851525 -6.460891 -50.552650 -63.421246 29.771245 -3.257324 4.001277 0.203570 0.183960 -0.384160 0.176780 6.320798 -14.567192 2.080944 64.766751 -8.413523 -9.941596 38.720587 69.043816 23.365749 2.361533 -1.962783 -0.343710 0.169130 0.087560 0.047880 
1.042640 16.174950 -1.344120 -2.686353 26.342132 9.570715 -15.130810 12.881758 3.992740 11.352311 -3.298774 -34.061581 -7.100796 6.763617 17.612367 -0.156877 4.153098 3.275206 -0.162760 -0.590070 -0.079380 18.245738 -11.166646 2.010054 -10.735637 2.037270 -16.547160 0.084761 -4.084790 19.499170 0.207800 -3.276747 3.340237 -0.337060 0.601890 0.041880 -4.278182 -1.427959 -7.340901 9.722819 1.292549 10.211148 -4.254844 1.759604 -10.362410 -2.630545 -13.379292 -7.762748 -26.453962 14.697019 19.358439 1.192740 3.009970 5.803000 0.146376 29.679514 2.339360 -59.445243 16.008723 -6.261768 -42.007337 -64.726262 25.702777 -3.313240 3.899422 0.227260 0.164450 -0.363950 0.172100 4.694454 -17.320744 2.174506 67.203741 -8.990219 -6.715357 54.680798 76.875232 38.176187 2.490151 -1.935582 -0.336500 0.147920 0.084210 0.038620 
1.074540 16.174770 -1.348100 -2.341789 26.548126 9.530711 -15.097536 12.840495 4.013697 10.770722 -3.465956 -34.257970 -7.090117 6.929317 18.723470 -0.116852 4.179085 3.233890 -0.131910 -0.570840 -0.028250 18.258156 -11.255694 2.058591 -10.857842 2.183824 -16.987853 0.326709 -4.256661 20.167543 0.173376 -3.293836 3.308848 -0.355680 0.528260 0.057890 -4.379388 -1.163962 -7.416877 11.317648 1.208448 10.956970 -7.014481 1.262064 -11.649098 -0.801882 -13.453032 -7.247201 -26.616224 15.861332 21.917009 0.452610 4.159520 6.047000 -1.193549 31.937641 0.345639 -60.132770 14.828532 -6.109238 -30.612134 -64.363920 19.360613 -3.332089 3.767523 0.260810 0.117430 -0.309180 0.159910 1.701967 -19.072053 2.542686 69.528051 -8.429387 -1.109763 84.039063 81.412425 61.250376 3.341971 -0.036700 -0.298750 0.101730 0.059190 0.023250 
1.099040 16.178830 -1.354820 -2.888575 26.564227 8.753033 -15.076556 12.877507 4.056985 10.883195 -3.383740 -34.469294 -6.898288 7.101496 19.820995 -0.093294 4.244774 3.150543 -0.096100 -0.548720 0.014210 18.249180 -11.292769 2.140096 -10.074775 2.332834 -16.885487 0.694200 -4.439587 20.738985 0.114556 -3.293118 3.280242 -0.378170 0.431280 0.085660 -4.444090 -1.105243 -7.589261 13.541879 0.818898 12.512820 -9.134490 0.786001 -13.534388 1.414324 -13.401475 -7.401359 -26.540010 17.521788 25.742710 -0.225820 5.604150 5.485790 -2.143121 34.027534 -1.759841 -61.486088 13.611490 -5.391454 -18.693864 -61.722076 12.837522 -3.316668 3.596133 0.330780 0.047140 -0.231510 0.141480 -2.222846 -20.334581 4.209955 71.256796 -4.907127 -4.188392 110.855059 74.717563 85.831195 2.712001 0.794955 -0.255220 0.046500 0.050070 0.000440 
1.117030 16.195670 -1.365270 -3.506084 25.982628 7.888061 -15.114364 13.082236 4.155699 10.665131 -3.339703 -35.029640 -6.130598 7.204994 21.451774 -0.012893 4.271332 3.083020 -0.057850 -0.477190 0.029640 18.157887 -11.237954 2.238608 -9.278009 2.586832 -16.921900 1.314089 -4.729584 21.960994 0.048550 -3.312692 3.259014 -0.391460 0.329920 0.101350 -4.292781 -1.475486 -7.823101 15.166989 0.048540 15.074193 -10.475598 0.311004 -16.640977 4.077756 -13.665192 -8.000412 -27.024188 19.883655 29.734700 -1.214720 7.370640 4.364230 -2.185860 36.990582 -4.017812 -62.752284 12.862430 -3.623400 -9.000100 -57.028564 8.579962 -3.272599 3.397046 0.369520 -0.030490 -0.134920 0.138690 -7.591731 -21.075967 5.726415 74.012684 -0.421053 0.696575 120.034995 72.465840 97.662981 2.131056 -0.225833 -0.182100 0.001200 0.021020 0.013860 
1.112830 16.202780 -1.387350 -4.754221 24.259924 5.893630 -15.087364 13.125978 4.161606 12.687716 -2.432425 -34.567861 -6.806009 8.043734 23.068890 0.102268 4.661086 2.857800 0.098010 -0.241670 0.148040 18.177117 -11.258372 2.270021 -7.657710 2.726541 -16.067687 0.078449 -4.290660 22.503949 -0.048987 -3.277547 3.218951 -0.294680 0.194350 0.162820 -4.323655 -1.351554 -7.895291 17.969376 -0.658780 16.905459 -12.642956 0.317044 -16.315591 6.154330 -14.174290 -7.760874 -26.933706 21.665534 33.040182 -3.642420 9.306950 1.321370 -5.527253 35.478465 -5.873150 -62.596946 10.544764 -3.069277 0.806765 -51.568617 3.967124 -3.293725 3.236650 0.336430 -0.079730 -0.004740 0.144390 -9.073561 -17.938126 6.851952 74.056081 7.568489 4.930235 127.663108 72.381604 109.538805 1.990340 -0.748831 -0.049150 -0.059210 -0.071440 0.036510 
1.074760 16.191230 -1.411830 -4.253832 24.404329 3.643778 -15.052179 12.943936 4.184071 14.428201 -1.984260 -33.759874 -8.400006 9.322663 25.454878 -0.026128 5.462925 2.521130 0.244850 -0.079040 0.291000 18.225076 -11.407327 2.156891 -9.000755 2.428722 -14.220704 0.380978 -4.676315 22.989122 -0.137027 -3.573143 3.072979 -0.123210 0.164260 0.196540 -4.460548 -0.794889 -7.896999 18.409083 -1.492790 17.695052 -14.579007 -0.032881 -11.541064 7.482773 -13.799926 -7.141664 -24.714505 22.248875 35.449468 -5.734780 10.584890 -2.553290 -11.183871 27.451125 -6.404928 -60.666541 5.204995 -3.595044 11.603699 -41.810777 -1.234567 -3.500907 2.936631 0.396380 -0.037930 0.034110 0.131180 -6.275863 -11.440401 6.793680 68.395674 16.227668 6.998577 137.004050 73.685044 121.945425 1.906986 -1.151162 -0.089250 0.013120 -0.081340 -0.043100 
1.050250 16.190070 -1.438130 -4.161160 23.939018 1.531895 -15.029994 12.775323 4.221673 16.129847 -1.511571 -33.132370 -9.809073 10.519336 27.449077 -0.072541 6.167807 2.206340 0.399190 0.111040 0.434550 18.278305 -11.459721 2.053703 -9.896388 2.166868 -12.329645 0.634864 -4.914474 22.935865 -0.220597 -3.799309 2.934547 0.037390 0.110010 0.248310 -4.549423 -0.428441 -7.890869 19.340191 -2.562821 18.449017 -16.779038 -0.400839 -6.802191 9.082737 -13.374122 -7.182518 -22.863814 22.860927 36.416825 -7.075270 11.500820 -5.473450 -13.526448 20.951668 -6.436623 -59.122669 -0.019978 -2.553054 17.294450 -30.248292 -2.753040 -3.688343 2.843754 0.398910 -0.004710 0.085180 0.117640 -6.919313 -5.651146 6.641659 62.921637 24.872752 7.649633 133.142909 76.273526 118.498598 1.867945 -0.707580 -0.070850 0.026630 -0.118710 -0.089930 
1.022710 16.178050 -1.459240 -3.789261 23.431893 0.175922 -15.089039 12.523417 4.366334 17.949427 -1.117464 -33.250040 -12.029380 12.104836 29.301551 -0.036784 7.010721 1.866357 0.527470 0.278640 0.555420 18.291686 -11.366848 1.895892 -10.983972 1.984791 -10.789471 1.169118 -5.186639 22.750436 -0.274681 -4.033378 2.794123 0.182740 0.089280 0.307030 -4.404554 -0.247474 -7.814119 19.047911 -3.375607 18.800098 -18.312762 -0.678852 -3.033533 10.522040 -12.782240 -6.872091 -21.043393 23.142410 35.390605 -7.991600 12.297360 -6.411800 -13.357719 16.008525 -5.893150 -57.915406 -4.537526 -0.694568 19.611783 -19.309489 -2.410785 -3.891117 2.877357 0.342300 0.062740 0.105290 0.113730 -9.761121 -1.415381 4.925309 57.845053 32.170573 9.562061 107.032694 80.730869 89.818223 2.895997 3.457657 -0.042850 0.014420 -0.163690 -0.114730 
0.984570 16.173760 -1.467160 -3.268155 22.844554 -0.440360 -14.996516 12.036500 4.547880 19.536477 -0.715313 -33.670237 -14.447781 13.715915 30.567876 -0.060693 7.837865 1.566446 0.587680 0.349480 0.641980 18.455565 -11.429768 1.814436 -11.844309 1.959113 -9.979255 1.250674 -5.284325 22.367427 -0.285744 -4.226486 2.702360 0.297400 0.128540 0.345170 -4.739341 0.523401 -7.940412 19.483633 -3.016641 16.805913 -20.396290 0.312639 4.474938 11.511145 -10.771090 -7.625119 -17.032560 21.365627 35.179592 -8.862950 12.578720 -6.897480 -14.657585 6.311532 -3.350988 -52.107374 -9.243581 0.424703 19.821281 -10.709908 -1.789608 -4.071361 2.931373 0.314610 0.173300 0.077870 0.096860 -9.428590 5.428873 4.623924 47.043613 35.994425 10.912673 43.335984 89.254504 33.002599 1.959117 -2.352763 -0.086140 0.051490 -0.160470 -0.169550 
